<svg width="128" height="107" viewBox="0 0 128 107" fill="none" xmlns="http://www.w3.org/2000/svg">
<g clip-path="url(#clip0_2_556)">
<path d="M52.7418 25.1788H52.1606V9.23046C52.1606 8.0183 51.9223 6.818 51.4592 5.69811C50.9961 4.57822 50.3173 3.56066 49.4617 2.70353C48.606 1.8464 47.5902 1.16649 46.4722 0.702619C45.3542 0.238747 44.156 -3.79228e-06 42.9459 0H9.21476C8.00466 -3.79228e-06 6.80641 0.238747 5.68842 0.702619C4.57044 1.16649 3.55461 1.8464 2.69894 2.70353C1.84327 3.56066 1.16451 4.57822 0.701427 5.69811C0.238343 6.81801 -1.89293e-06 8.0183 0 9.23046V96.7241C-1.13575e-06 97.9363 0.238345 99.1366 0.701429 100.257C1.16451 101.376 1.84327 102.394 2.69894 103.251C3.55461 104.108 4.57044 104.788 5.68842 105.252C6.80641 105.716 8.00466 105.955 9.21476 105.955H42.9459C44.156 105.955 45.3542 105.716 46.4722 105.252C47.5902 104.788 48.606 104.108 49.4617 103.251C50.3173 102.394 50.9961 101.376 51.4592 100.257C51.9223 99.1366 52.1606 97.9363 52.1606 96.7241V36.5311H52.7418V25.1788Z" fill="#B1B1B1"/>
<path d="M43.3177 2.40137H38.9147C39.1171 2.89864 39.1944 3.43816 39.1397 3.9724C39.085 4.50665 38.9 5.01921 38.6009 5.46495C38.3019 5.91069 37.898 6.27592 37.4249 6.52847C36.9517 6.78102 36.4238 6.91313 35.8877 6.91317H16.5636C16.0274 6.91313 15.4995 6.78102 15.0264 6.52847C14.5532 6.27592 14.1493 5.91069 13.8503 5.46495C13.5512 5.01921 13.3662 4.50665 13.3115 3.9724C13.2568 3.43816 13.3341 2.89864 13.5366 2.40137H9.42413C8.52045 2.40137 7.62561 2.57966 6.79071 2.92608C5.95581 3.27249 5.19721 3.78024 4.5582 4.42033C3.9192 5.06042 3.41231 5.82032 3.06649 6.65664C2.72066 7.49296 2.54266 8.38933 2.54266 9.29455V96.6599C2.54266 97.5651 2.72066 98.4614 3.06649 99.2978C3.41231 100.134 3.9192 100.894 4.5582 101.534C5.1972 102.174 5.95581 102.682 6.79071 103.028C7.62561 103.375 8.52044 103.553 9.42413 103.553H43.3177C44.2214 103.553 45.1162 103.375 45.9511 103.028C46.786 102.682 47.5446 102.174 48.1836 101.534C48.8226 100.894 49.3295 100.134 49.6753 99.2978C50.0212 98.4614 50.1991 97.5651 50.1991 96.6599V9.29455C50.1991 8.38933 50.0212 7.49296 49.6753 6.65664C49.3295 5.82032 48.8226 5.06042 48.1836 4.42033C47.5446 3.78024 46.786 3.27249 45.9511 2.92608C45.1162 2.57966 44.2214 2.40137 43.3177 2.40137Z" fill="white"/>
<path d="M16.3852 20.1619H14.3615C14.2903 20.1619 14.2221 20.1902 14.1718 20.2406C14.1215 20.291 14.0932 20.3593 14.0932 20.4306V21.3204C14.0932 21.3917 14.1215 21.46 14.1718 21.5104C14.2221 21.5608 14.2903 21.5891 14.3615 21.5891H14.6969V22.9223H16.0498V21.5891H16.3852C16.4563 21.5891 16.5246 21.5608 16.5749 21.5104C16.6252 21.46 16.6535 21.3917 16.6535 21.3204V20.4306C16.6535 20.3593 16.6252 20.291 16.5749 20.2406C16.5246 20.1902 16.4563 20.1619 16.3852 20.1619Z" fill="#E6E6E6"/>
<path d="M18.4122 28.305C17.1728 26.4884 16.5392 24.3254 16.6022 22.126C16.6033 22.0753 16.5868 22.0257 16.5556 21.9857C16.5244 21.9457 16.4803 21.9178 16.4309 21.9067V21.5222H14.2936V21.9013H14.2642C14.206 21.9014 14.1502 21.9246 14.1092 21.9659C14.0681 22.0071 14.0451 22.063 14.0451 22.1213C14.0451 22.1266 14.0453 22.132 14.0457 22.1373C14.2141 24.4884 13.6456 26.5969 12.34 28.4627C12.2649 28.5699 12.2265 28.6986 12.2306 28.8296L12.4643 36.0709C12.47 36.2324 12.5376 36.3855 12.6532 36.4983C12.7689 36.611 12.9235 36.6747 13.0848 36.6759H17.919C18.0822 36.6746 18.2384 36.6095 18.3543 36.4945C18.4703 36.3795 18.5368 36.2237 18.5398 36.0602L18.6299 29.0295C18.6325 28.7714 18.5566 28.5187 18.4122 28.305Z" fill="#FDC27A"/>
<path d="M17.6469 30.7104H13.4391C13.3768 30.7104 13.3152 30.7239 13.2587 30.75C13.2021 30.7761 13.1518 30.8141 13.1112 30.8614C13.0706 30.9088 13.0408 30.9644 13.0237 31.0243C13.0066 31.0843 13.0026 31.1473 13.0121 31.209L13.648 35.3491H17.2991L18.0715 31.2229C18.0832 31.1604 18.081 31.0961 18.0651 31.0346C18.0491 30.973 18.0198 30.9158 17.9793 30.8668C17.9388 30.8179 17.888 30.7785 17.8305 30.7515C17.773 30.7245 17.7104 30.7104 17.6469 30.7104Z" fill="white"/>
<path d="M38.9127 41.8542H36.889C36.8178 41.8542 36.7496 41.8826 36.6992 41.933C36.6489 41.9834 36.6207 42.0517 36.6207 42.123V43.0128C36.6207 43.084 36.6489 43.1524 36.6992 43.2028C36.7496 43.2532 36.8178 43.2815 36.889 43.2815H37.2243V44.6147H38.5773V43.2815H38.9127C38.9838 43.2815 39.0521 43.2532 39.1024 43.2028C39.1527 43.1524 39.181 43.084 39.181 43.0128V42.123C39.1809 42.0517 39.1527 41.9834 39.1024 41.933C39.052 41.8826 38.9838 41.8542 38.9127 41.8542Z" fill="#E6E6E6"/>
<path d="M40.9396 49.9974C39.7003 48.1808 39.0667 46.0178 39.1296 43.8184C39.1307 43.7677 39.1143 43.7181 39.0831 43.6781C39.0519 43.6381 39.0078 43.6102 38.9583 43.5991V43.2146H36.8211V43.5937H36.7916C36.7628 43.5938 36.7343 43.5995 36.7077 43.6106C36.6811 43.6216 36.657 43.6378 36.6366 43.6583C36.6163 43.6787 36.6002 43.7029 36.5892 43.7296C36.5782 43.7563 36.5726 43.7848 36.5726 43.8137C36.5726 43.819 36.5728 43.8244 36.5732 43.8297C36.7416 46.1808 36.173 48.2893 34.8675 50.1551C34.7924 50.2623 34.754 50.391 34.7581 50.522L34.9918 57.7633C34.9974 57.9248 35.0651 58.0779 35.1807 58.1907C35.2963 58.3034 35.4509 58.367 35.6123 58.3683H40.4465C40.6096 58.367 40.7658 58.3019 40.8818 58.1869C40.9978 58.0719 41.0643 57.9161 41.0673 57.7526L41.1573 50.7219C41.16 50.4638 41.084 50.2111 40.9396 49.9974Z" fill="#FDC27A"/>
<path d="M40.1743 52.4028H35.9666C35.9043 52.4028 35.8427 52.4163 35.7861 52.4424C35.7295 52.4684 35.6792 52.5064 35.6387 52.5538C35.5981 52.6012 35.5683 52.6567 35.5512 52.7167C35.5341 52.7767 35.5301 52.8397 35.5396 52.9014L36.1754 57.0415H39.8266L40.5989 52.9153C40.6106 52.8528 40.6084 52.7885 40.5925 52.727C40.5766 52.6654 40.5473 52.6081 40.5068 52.5592C40.4662 52.5103 40.4154 52.4709 40.358 52.4439C40.3005 52.4168 40.2378 52.4028 40.1743 52.4028H40.1743Z" fill="white"/>
<path d="M13.5402 72.5208H12.5803C12.5465 72.5208 12.5141 72.5342 12.4903 72.5581C12.4664 72.582 12.453 72.6144 12.453 72.6482V73.0703C12.453 73.1041 12.4664 73.1365 12.4903 73.1604C12.5141 73.1843 12.5465 73.1978 12.5803 73.1978H12.7393V73.8302H13.3811V73.1978H13.5402C13.5739 73.1978 13.6063 73.1843 13.6302 73.1604C13.6541 73.1365 13.6675 73.1041 13.6675 73.0703V72.6482C13.6675 72.6144 13.6541 72.582 13.6302 72.5581C13.6063 72.5342 13.5739 72.5208 13.5402 72.5208Z" fill="#E6E6E6"/>
<path d="M14.5017 76.3836C13.9138 75.5219 13.6133 74.496 13.6431 73.4527C13.6437 73.4286 13.6359 73.4051 13.6211 73.3861C13.6063 73.3671 13.5854 73.3539 13.5619 73.3486V73.1663H12.5481V73.3461H12.5341C12.5205 73.3461 12.5069 73.3488 12.4943 73.3541C12.4817 73.3593 12.4703 73.367 12.4606 73.3767C12.451 73.3864 12.4433 73.3979 12.4381 73.4106C12.4329 73.4232 12.4302 73.4368 12.4302 73.4504C12.4302 73.453 12.4303 73.4555 12.4305 73.458C12.5241 74.5226 12.2374 75.5859 11.6214 76.4584C11.5858 76.5093 11.5676 76.5704 11.5695 76.6325L11.6804 80.0674C11.6831 80.144 11.7152 80.2166 11.77 80.2701C11.8248 80.3236 11.8982 80.3538 11.9747 80.3544H14.2678C14.3452 80.3537 14.4193 80.3229 14.4743 80.2683C14.5293 80.2138 14.5609 80.1398 14.5623 80.0623L14.605 76.7273C14.6062 76.6049 14.5702 76.485 14.5017 76.3836Z" fill="#FDC27A"/>
<path d="M14.1716 77.6462H11.9836V78.7421H14.1716V77.6462Z" fill="white"/>
<path d="M18.0086 72.5208H17.0487C17.015 72.5208 16.9826 72.5342 16.9587 72.5581C16.9349 72.582 16.9214 72.6144 16.9214 72.6482V73.0703C16.9214 73.1041 16.9349 73.1365 16.9587 73.1604C16.9826 73.1843 17.015 73.1978 17.0487 73.1978H17.2078V73.8302H17.8496V73.1978H18.0086C18.0424 73.1978 18.0748 73.1843 18.0986 73.1604C18.1225 73.1365 18.1359 73.1041 18.1359 73.0703V72.6482C18.1359 72.6144 18.1225 72.582 18.0986 72.5581C18.0748 72.5342 18.0424 72.5208 18.0086 72.5208Z" fill="#E6E6E6"/>
<path d="M18.9702 76.3836C18.3823 75.5219 18.0817 74.496 18.1116 73.4527C18.1121 73.4286 18.1043 73.4051 18.0895 73.3861C18.0747 73.3671 18.0538 73.3539 18.0304 73.3486V73.1663H17.0165V73.3461H17.0026C16.9889 73.3461 16.9754 73.3488 16.9628 73.3541C16.9502 73.3593 16.9387 73.367 16.9291 73.3767C16.9194 73.3864 16.9118 73.3979 16.9065 73.4106C16.9013 73.4232 16.8987 73.4368 16.8987 73.4504C16.8987 73.453 16.8988 73.4555 16.899 73.458C16.9925 74.5226 16.7058 75.5859 16.0899 76.4584C16.0542 76.5093 16.036 76.5704 16.038 76.6325L16.1488 80.0674C16.1515 80.144 16.1836 80.2166 16.2384 80.2701C16.2933 80.3236 16.3666 80.3538 16.4431 80.3544H18.7362C18.8136 80.3537 18.8877 80.3229 18.9427 80.2683C18.9977 80.2138 19.0293 80.1398 19.0307 80.0623L19.0734 76.7273C19.0747 76.6049 19.0387 76.485 18.9702 76.3836Z" fill="#FDC27A"/>
<path d="M18.64 77.6462H16.452V78.7421H18.64V77.6462Z" fill="white"/>
<path d="M22.4771 72.5208H21.5172C21.4835 72.5208 21.4511 72.5342 21.4272 72.5581C21.4034 72.582 21.39 72.6144 21.39 72.6482V73.0703C21.39 73.1041 21.4034 73.1365 21.4272 73.1604C21.4511 73.1843 21.4835 73.1978 21.5172 73.1978H21.6763V73.8302H22.3181V73.1978H22.4771C22.5109 73.1978 22.5433 73.1843 22.5671 73.1604C22.591 73.1365 22.6044 73.1041 22.6044 73.0703V72.6482C22.6044 72.6144 22.591 72.582 22.5671 72.5581C22.5433 72.5342 22.5109 72.5208 22.4771 72.5208Z" fill="#E6E6E6"/>
<path d="M23.4387 76.3836C22.8508 75.5219 22.5502 74.496 22.5801 73.4527C22.5806 73.4286 22.5728 73.4051 22.558 73.3861C22.5432 73.3671 22.5223 73.3539 22.4989 73.3486V73.1663H21.485V73.3461H21.4711C21.4574 73.3461 21.4439 73.3488 21.4313 73.3541C21.4187 73.3593 21.4072 73.367 21.3976 73.3767C21.3879 73.3864 21.3803 73.3979 21.375 73.4106C21.3698 73.4232 21.3672 73.4368 21.3672 73.4504C21.3672 73.453 21.3673 73.4555 21.3675 73.458C21.461 74.5226 21.1743 75.5859 20.5584 76.4584C20.5227 76.5093 20.5045 76.5704 20.5065 76.6325L20.6173 80.0674C20.62 80.144 20.6521 80.2166 20.7069 80.2701C20.7618 80.3236 20.8351 80.3538 20.9116 80.3544H23.2047C23.2821 80.3537 23.3562 80.3229 23.4112 80.2683C23.4662 80.2138 23.4978 80.1398 23.4992 80.0623L23.5419 76.7273C23.5432 76.6049 23.5072 76.485 23.4387 76.3836Z" fill="#FDC27A"/>
<path d="M23.1085 77.6462H20.9205V78.7421H23.1085V77.6462Z" fill="white"/>
<path d="M35.397 64.1289H33.3733C33.3381 64.1289 33.3032 64.1359 33.2707 64.1494C33.2381 64.1629 33.2085 64.1827 33.1836 64.2076C33.1587 64.2326 33.1389 64.2622 33.1255 64.2948C33.112 64.3274 33.105 64.3624 33.105 64.3977V65.2874C33.105 65.3587 33.1333 65.4271 33.1836 65.4775C33.2339 65.5279 33.3022 65.5562 33.3733 65.5562H33.7087V66.8894H35.0617V65.5562H35.397C35.4682 65.5562 35.5364 65.5279 35.5867 65.4775C35.6371 65.4271 35.6653 65.3587 35.6653 65.2874V64.3977C35.6653 64.3624 35.6584 64.3274 35.6449 64.2948C35.6314 64.2622 35.6117 64.2326 35.5867 64.2076C35.5618 64.1827 35.5323 64.1629 35.4997 64.1494C35.4671 64.1359 35.4323 64.1289 35.397 64.1289Z" fill="#E6E6E6"/>
<path d="M37.424 72.272C36.1846 70.4554 35.551 68.2925 35.614 66.0931C35.6151 66.0423 35.5987 65.9927 35.5675 65.9528C35.5362 65.9128 35.4922 65.8848 35.4427 65.8737V65.4893H33.3054V65.8684H33.276C33.2472 65.8684 33.2187 65.8741 33.1921 65.8852C33.1655 65.8963 33.1413 65.9125 33.121 65.9329C33.1007 65.9533 33.0845 65.9776 33.0736 66.0043C33.0626 66.0309 33.0569 66.0595 33.057 66.0883C33.057 66.0937 33.0572 66.099 33.0576 66.1043C33.226 68.4555 32.6574 70.5639 31.3519 72.4297C31.2767 72.5369 31.2384 72.6657 31.2425 72.7966L31.4762 80.038C31.4818 80.1995 31.5495 80.3526 31.6651 80.4653C31.7807 80.578 31.9353 80.6417 32.0966 80.643H36.9308C37.094 80.6417 37.2502 80.5765 37.3662 80.4615C37.4821 80.3465 37.5487 80.1907 37.5516 80.0273L37.6417 72.9965C37.6444 72.7385 37.5684 72.4857 37.424 72.272Z" fill="#FDC27A"/>
<path d="M36.6587 74.6775H32.4509C32.3886 74.6775 32.3271 74.691 32.2705 74.717C32.2139 74.7431 32.1636 74.7811 32.123 74.8285C32.0825 74.8758 32.0526 74.9314 32.0355 74.9914C32.0184 75.0514 32.0145 75.1144 32.0239 75.176L32.6598 79.3162H36.311L37.0833 75.19C37.095 75.1275 37.0928 75.0632 37.0769 75.0016C37.061 74.9401 37.0317 74.8828 36.9912 74.8339C36.9506 74.7849 36.8998 74.7456 36.8424 74.7185C36.7849 74.6915 36.7222 74.6775 36.6587 74.6775Z" fill="white"/>
<path d="M36.5019 37.6083H24.4388C25.2822 33.0407 25.0881 27.5253 24.4388 21.5938H36.5019C35.8698 27.5253 35.6809 33.0407 36.5019 37.6083Z" fill="#FDC27A"/>
<path d="M30.5429 32.0759C32.1483 32.0759 33.4497 30.7723 33.4497 29.1642C33.4497 27.5561 32.1483 26.2524 30.5429 26.2524C28.9376 26.2524 27.6362 27.5561 27.6362 29.1642C27.6362 30.7723 28.9376 32.0759 30.5429 32.0759Z" fill="white"/>
<path d="M25.4562 58.8639H13.3931C14.2364 54.2963 14.0424 48.7809 13.3931 42.8494H25.4562C24.8241 48.7809 24.6352 54.2963 25.4562 58.8639Z" fill="#FDC27A"/>
<path d="M19.4973 53.3315C21.1026 53.3315 22.4041 52.0279 22.4041 50.4198C22.4041 48.8117 21.1026 47.5081 19.4973 47.5081C17.8919 47.5081 16.5905 48.8117 16.5905 50.4198C16.5905 52.0279 17.8919 53.3315 19.4973 53.3315Z" fill="white"/>
<path d="M43.3328 38.6273H31.2697C32.1131 34.0598 31.9191 28.5443 31.2697 22.6128H43.3328C42.7007 28.5443 42.5119 34.0598 43.3328 38.6273Z" fill="#E6E6E6"/>
<path d="M37.3739 33.0949C38.9792 33.0949 40.2806 31.7913 40.2806 30.1832C40.2806 28.5751 38.9792 27.2715 37.3739 27.2715C35.7685 27.2715 34.4671 28.5751 34.4671 30.1832C34.4671 31.7913 35.7685 33.0949 37.3739 33.0949Z" fill="white"/>
<path d="M43.3328 37.8993H31.2697C32.1131 33.3317 31.9191 27.8163 31.2697 21.8848H43.3328C42.7007 27.8163 42.5119 33.3317 43.3328 37.8993Z" fill="#E6E6E6"/>
<path d="M37.3739 32.3672C38.9792 32.3672 40.2806 31.0635 40.2806 29.4554C40.2806 27.8473 38.9792 26.5437 37.3739 26.5437C35.7685 26.5437 34.4671 27.8473 34.4671 29.4554C34.4671 31.0635 35.7685 32.3672 37.3739 32.3672Z" fill="white"/>
<path d="M43.3328 38.6273H31.2697C32.1131 34.0598 31.9191 28.5443 31.2697 22.6128H43.3328C42.7007 28.5443 42.5119 34.0598 43.3328 38.6273Z" fill="#FDC27A"/>
<path d="M37.3739 33.0949C38.9792 33.0949 40.2806 31.7913 40.2806 30.1832C40.2806 28.5751 38.9792 27.2715 37.3739 27.2715C35.7685 27.2715 34.4671 28.5751 34.4671 30.1832C34.4671 31.7913 35.7685 33.0949 37.3739 33.0949Z" fill="white"/>
<path d="M46.0942 36.7346H6.56213V41.1022H46.0942V36.7346Z" fill="#E6E6E6"/>
<path d="M46.0942 58.427H6.56213V62.7946H46.0942V58.427Z" fill="#E6E6E6"/>
<path d="M46.0942 80.1194H6.56213V84.487H46.0942V80.1194Z" fill="#E6E6E6"/>
<path d="M114.862 97.8385L105.013 90.8608C108.335 87.6196 111.356 83.0044 114.245 77.7861L124.094 84.7639C120.158 89.2409 116.825 93.6346 114.862 97.8385Z" fill="#FDC27A"/>
<path d="M114.865 90.4094C116.47 90.4094 117.771 89.1058 117.771 87.4977C117.771 85.8896 116.47 84.5859 114.865 84.5859C113.259 84.5859 111.958 85.8896 111.958 87.4977C111.958 89.1058 113.259 90.4094 114.865 90.4094Z" fill="white"/>
<path d="M67.3531 65.9976H66.272C66.234 65.9976 66.1976 66.0127 66.1707 66.0396C66.1438 66.0665 66.1287 66.1031 66.1287 66.1411V66.6165C66.1287 66.6353 66.1324 66.654 66.1396 66.6714C66.1468 66.6888 66.1574 66.7047 66.1707 66.718C66.184 66.7313 66.1998 66.7419 66.2172 66.7491C66.2346 66.7563 66.2532 66.76 66.272 66.76H66.4512V67.4722H67.174V66.76H67.3531C67.3911 66.76 67.4276 66.7449 67.4545 66.718C67.4814 66.6911 67.4965 66.6545 67.4965 66.6165V66.1411C67.4965 66.1031 67.4814 66.0665 67.4545 66.0396C67.4276 66.0127 67.3911 65.9976 67.3531 65.9976Z" fill="#E6E6E6"/>
<path d="M68.4359 70.3478C67.7739 69.3774 67.4354 68.2219 67.469 67.0469C67.4696 67.0198 67.4609 66.9933 67.4442 66.972C67.4275 66.9506 67.4039 66.9357 67.3775 66.9297V66.7244H66.2358V66.9269H66.22C66.2047 66.9269 66.1894 66.93 66.1752 66.9359C66.161 66.9418 66.1481 66.9505 66.1372 66.9614C66.1264 66.9723 66.1178 66.9852 66.1119 66.9995C66.106 67.0137 66.103 67.029 66.103 67.0444C66.103 67.0473 66.1031 67.0501 66.1034 67.0529C66.2087 68.2519 65.8858 69.4493 65.1921 70.4321C65.152 70.4893 65.1315 70.5581 65.1337 70.6281L65.2585 74.4965C65.2615 74.5828 65.2977 74.6646 65.3595 74.7248C65.4212 74.785 65.5038 74.819 65.59 74.8197H68.1725C68.2597 74.819 68.3431 74.7842 68.4051 74.7228C68.467 74.6613 68.5026 74.5781 68.5041 74.4908L68.5523 70.7349C68.5537 70.597 68.5131 70.462 68.4359 70.3478Z" fill="#FDC27A"/>
<path opacity="0.2" d="M67.1278 66.1523C67.1278 66.2345 67.0952 66.3133 67.0372 66.3714C66.9792 66.4295 66.9006 66.4621 66.8186 66.4621C66.7366 66.4621 66.6579 66.4295 66.5999 66.3714C66.5419 66.3133 66.5093 66.2345 66.5093 66.1523" fill="black"/>
<path d="M67.9329 71.093H65.7529V72.5489H67.9329V71.093Z" fill="white"/>
<path d="M101.564 81.1099H99.5406C99.4695 81.1099 99.4012 81.1382 99.3509 81.1886C99.3006 81.239 99.2723 81.3073 99.2723 81.3786V82.2684C99.2723 82.3397 99.3006 82.408 99.3509 82.4584C99.4012 82.5088 99.4695 82.5372 99.5406 82.5372H99.876V83.8703H101.229V82.5372H101.564C101.635 82.5372 101.704 82.5088 101.754 82.4584C101.804 82.408 101.833 82.3397 101.833 82.2684V81.3786C101.833 81.3073 101.804 81.239 101.754 81.1886C101.704 81.1382 101.635 81.1099 101.564 81.1099Z" fill="#E6E6E6"/>
<path d="M103.591 89.253C102.352 87.4364 101.718 85.2734 101.781 83.074C101.782 83.0233 101.766 82.9737 101.735 82.9337C101.703 82.8937 101.659 82.8658 101.61 82.8547V82.4702H99.4727V82.8493H99.4432C99.4144 82.8494 99.3859 82.8551 99.3593 82.8662C99.3327 82.8772 99.3086 82.8935 99.2882 82.9139C99.2679 82.9343 99.2518 82.9585 99.2408 82.9852C99.2298 83.0119 99.2242 83.0404 99.2242 83.0693C99.2242 83.0746 99.2244 83.08 99.2248 83.0853C99.3932 85.4364 98.8246 87.5449 97.5191 89.4107C97.444 89.5179 97.4056 89.6466 97.4097 89.7776L97.6434 97.0189C97.649 97.1804 97.7167 97.3335 97.8323 97.4463C97.9479 97.559 98.1025 97.6226 98.2639 97.6239H103.098C103.261 97.6226 103.417 97.5575 103.533 97.4425C103.649 97.3275 103.716 97.1717 103.719 97.0082L103.809 89.9775C103.812 89.7194 103.736 89.4667 103.591 89.253Z" fill="#FDC27A"/>
<path opacity="0.2" d="M101.142 81.3999C101.142 81.5537 101.081 81.7012 100.973 81.8099C100.864 81.9186 100.717 81.9797 100.564 81.9797C100.41 81.9797 100.263 81.9186 100.154 81.8099C100.046 81.7012 99.9847 81.5537 99.9847 81.3999" fill="black"/>
<path d="M102.826 91.6584H98.6182C98.5559 91.6584 98.4943 91.6719 98.4377 91.698C98.3811 91.724 98.3308 91.7621 98.2903 91.8094C98.2497 91.8568 98.2199 91.9124 98.2028 91.9723C98.1857 92.0323 98.1817 92.0953 98.1912 92.157L98.827 96.2971H102.478L103.251 92.1709C103.262 92.1084 103.26 92.0441 103.244 91.9826C103.228 91.921 103.199 91.8638 103.158 91.8148C103.118 91.7659 103.067 91.7265 103.01 91.6995C102.952 91.6725 102.889 91.6584 102.826 91.6584Z" fill="white"/>
<path d="M95.7904 97.827H83.7273C84.5707 93.2595 84.3766 87.744 83.7273 81.8125H95.7904C95.1583 87.744 94.9694 93.2595 95.7904 97.827Z" fill="#FDC27A"/>
<path d="M89.8316 92.2949C91.437 92.2949 92.7384 90.9913 92.7384 89.3832C92.7384 87.7751 91.437 86.4714 89.8316 86.4714C88.2263 86.4714 86.9249 87.7751 86.9249 89.3832C86.9249 90.9913 88.2263 92.2949 89.8316 92.2949Z" fill="white"/>
<path d="M46.4494 47.4271L49.1574 47.1805L50.8808 42.9883L47.8035 41.262L46.4494 47.4271Z" fill="#FFB8B8"/>
<path d="M71.3024 58.9363C71.3924 58.7114 71.4278 58.4682 71.4056 58.2269C71.3834 57.9855 71.3043 57.7529 71.1747 57.5482C71.0452 57.3435 70.869 57.1726 70.6605 57.0495C70.4521 56.9264 70.2175 56.8547 69.976 56.8403L65.7713 56.5891L65.1522 58.6513L69.4807 59.8421C69.8424 59.9416 70.228 59.9042 70.564 59.7372C70.8999 59.5701 71.1628 59.2851 71.3024 58.9363Z" fill="#FFB8B8"/>
<path d="M66.7876 59.8768L66.7413 56.0072L57.4018 54.5144L50.2068 46.2484C49.8325 45.8183 49.3152 45.5388 48.7508 45.4615C48.1865 45.3841 47.6133 45.5144 47.1374 45.828C46.8493 46.0179 46.6063 46.2688 46.4256 46.5631C46.245 46.8574 46.1311 47.1878 46.0919 47.5311C46.0528 47.8743 46.0894 48.222 46.1992 48.5495C46.3089 48.877 46.4891 49.1764 46.7271 49.4265L52.6629 56.7438L66.7876 59.8768Z" fill="#575A89"/>
<path d="M44.3569 103.407H46.8188L52.9252 75.7517L59.2513 84.2951L62.9441 102.791H65.2829L64.7905 82.9388L56.5432 61.7305H48.419C46.1988 65.7553 44.4572 69.9041 46.4495 74.1842L44.3569 103.407Z" fill="#2F2E41"/>
<path d="M61.4349 105.087C61.4077 105.174 61.3993 105.266 61.4104 105.357C61.4215 105.448 61.4517 105.535 61.4991 105.613C61.5465 105.691 61.61 105.759 61.6853 105.81C61.7606 105.862 61.846 105.897 61.9359 105.913L67.9601 106.984C68.1982 107.027 68.4439 106.982 68.6511 106.857C68.8582 106.731 69.0124 106.535 69.0846 106.303C69.1548 106.082 69.145 105.843 69.0569 105.629C68.9688 105.414 68.808 105.238 68.6028 105.13C67.2782 104.449 66.1382 103.456 65.2805 102.237C64.6184 102.854 63.8784 102.796 63.0926 102.341L62.259 102.445L61.4349 105.087Z" fill="#2F2E41"/>
<path d="M43.2169 105.087C43.1897 105.174 43.1814 105.266 43.1924 105.357C43.2035 105.448 43.2337 105.535 43.2811 105.613C43.3285 105.691 43.392 105.759 43.4673 105.81C43.5426 105.862 43.6281 105.897 43.7179 105.913L49.7422 106.984C49.9802 107.027 50.226 106.982 50.4331 106.857C50.6402 106.731 50.7944 106.535 50.8666 106.303C50.9368 106.082 50.927 105.843 50.8389 105.629C50.7508 105.414 50.59 105.238 50.3848 105.13C49.0602 104.449 47.9203 103.456 47.0626 102.237C46.4005 102.854 45.6604 102.796 44.8746 102.341L44.0411 102.445L43.2169 105.087Z" fill="#2F2E41"/>
<path d="M50.9424 44.5295C52.8459 44.5295 54.3891 42.9838 54.3891 41.077C54.3891 39.1703 52.8459 37.6245 50.9424 37.6245C49.0389 37.6245 47.4958 39.1703 47.4958 41.077C47.4958 42.9838 49.0389 44.5295 50.9424 44.5295Z" fill="#FFB8B8"/>
<path d="M47.865 62.6553L56.8509 62.4087L54.2119 54.089C55.8519 51.4555 54.2014 48.8246 51.8655 46.1942L50.0191 44.9612L47.0649 44.7146C45.7858 46.0856 45.0859 47.8992 45.1118 49.7755C45.1703 53.7934 45.8806 58.1673 47.865 62.6553Z" fill="#575A89"/>
<path d="M68.5105 68.2555C68.6817 68.0842 68.8097 67.8745 68.8841 67.6439C68.9585 67.4133 68.9771 67.1683 68.9384 66.929C68.8997 66.6898 68.8048 66.4632 68.6615 66.2679C68.5182 66.0726 68.3306 65.9142 68.1143 65.8058L64.3472 63.918L62.9682 65.5699L66.48 68.3704C66.7735 68.6044 67.1427 68.722 67.5172 68.7008C67.8917 68.6796 68.2453 68.5211 68.5105 68.2555Z" fill="#FFB8B8"/>
<path d="M63.9903 67.3408L65.4674 63.765L57.4672 58.7123L54.0985 48.2775C53.9232 47.7346 53.5574 47.2737 53.0689 46.9802C52.5804 46.6868 52.0023 46.5806 51.4416 46.6814C51.1022 46.7424 50.7802 46.8774 50.4986 47.0768C50.2169 47.2762 49.9824 47.5351 49.8116 47.8352C49.6408 48.1354 49.538 48.4694 49.5102 48.8138C49.4825 49.1581 49.5307 49.5044 49.6512 49.8281L52.2348 58.8945L63.9903 67.3408Z" fill="#575A89"/>
<path d="M45.28 39.7208C45.28 41.0642 46.151 43.1447 47.2495 44.0365C47.9887 44.6365 48.9655 44.6112 49.3421 43.7899C49.7285 42.9473 51.0603 40.9667 53.4042 39.7208C56.5289 38.06 52.2961 35.2185 49.3421 35.6518C47.1224 35.9774 45.28 37.4736 45.28 39.7208Z" fill="#2F2E41"/>
<path d="M47.3727 37.8711C48.7323 37.8711 49.8345 36.767 49.8345 35.405C49.8345 34.0431 48.7323 32.939 47.3727 32.939C46.013 32.939 44.9108 34.0431 44.9108 35.405C44.9108 36.767 46.013 37.8711 47.3727 37.8711Z" fill="#2F2E41"/>
<path d="M50.2038 34.542C50.2035 33.9203 49.9687 33.3216 49.5464 32.866C49.1241 32.4104 48.5455 32.1315 47.9265 32.0853C47.9877 32.0807 48.0488 32.0759 48.1112 32.0759C48.7641 32.0759 49.3903 32.3357 49.852 32.7982C50.3137 33.2607 50.573 33.888 50.573 34.542C50.573 35.1961 50.3137 35.8233 49.852 36.2858C49.3903 36.7483 48.7641 37.0081 48.1112 37.0081C48.0488 37.0081 47.9877 37.0033 47.9265 36.9988C48.5455 36.9525 49.1241 36.6736 49.5464 36.218C49.9687 35.7624 50.2035 35.1637 50.2038 34.542Z" fill="#2F2E41"/>
<path d="M51.0039 42.3102C51.3099 42.3102 51.5579 41.979 51.5579 41.5704C51.5579 41.1618 51.3099 40.8306 51.0039 40.8306C50.698 40.8306 50.45 41.1618 50.45 41.5704C50.45 41.979 50.698 42.3102 51.0039 42.3102Z" fill="#FFB8B8"/>
<path d="M120.757 98.8848H82.433L74.3176 60.4553H67.3916V58.731H75.7129L83.8284 97.1604H120.757V98.8848Z" fill="#3F3D56"/>
<path d="M88.0491 105.905C90.0864 105.905 91.738 104.251 91.738 102.21C91.738 100.17 90.0864 98.5151 88.0491 98.5151C86.0118 98.5151 84.3603 100.17 84.3603 102.21C84.3603 104.251 86.0118 105.905 88.0491 105.905Z" fill="#3F3D56"/>
<path d="M115.593 105.905C117.63 105.905 119.281 104.251 119.281 102.21C119.281 100.17 117.63 98.5151 115.593 98.5151C113.555 98.5151 111.904 100.17 111.904 102.21C111.904 104.251 113.555 105.905 115.593 105.905Z" fill="#3F3D56"/>
<path d="M120.058 98.0728H82.7711L76.1922 65.5054H126.232C126.487 65.5054 126.74 65.5608 126.972 65.6678C127.204 65.7749 127.41 65.9309 127.576 66.1253C127.741 66.3197 127.863 66.5478 127.933 66.7939C128.003 67.04 128.018 67.2982 127.978 67.5509L121.804 96.5769C121.741 96.9945 121.529 97.3753 121.209 97.6499C120.888 97.9245 120.48 98.0746 120.058 98.0728ZM83.176 97.5801H120.058C120.362 97.5814 120.657 97.4731 120.889 97.2749C121.12 97.0767 121.272 96.8019 121.318 96.5004L127.492 67.4744C127.521 67.2921 127.51 67.1056 127.46 66.928C127.41 66.7504 127.322 66.5857 127.202 66.4454C127.082 66.3051 126.933 66.1925 126.766 66.1152C126.598 66.038 126.416 65.998 126.232 65.9981H76.7892L83.176 97.5801Z" fill="#3F3D56"/>
<path d="M90.0198 97.9685L85.7114 65.7917L86.1966 65.7114L90.505 97.8882L90.0198 97.9685Z" fill="#3F3D56"/>
<path d="M113.976 97.7214L113.491 97.6426L117.673 65.7122L118.159 65.791L113.976 97.7214Z" fill="#3F3D56"/>
<path d="M102.562 65.7517H102.071V97.9284H102.562V65.7517Z" fill="#3F3D56"/>
<path d="M78.7047 74.3735L78.7036 74.8662L126.314 74.9817L126.315 74.489L78.7047 74.3735Z" fill="#3F3D56"/>
<path d="M122.955 89.5932L81.1285 89.8796L81.1319 90.3723L122.958 90.0859L122.955 89.5932Z" fill="#3F3D56"/>
<path d="M68.1294 60.8248C69.6234 60.8248 70.8346 60.163 70.8346 59.3467C70.8346 58.5304 69.6234 57.8687 68.1294 57.8687C66.6354 57.8687 65.4243 58.5304 65.4243 59.3467C65.4243 60.163 66.6354 60.8248 68.1294 60.8248Z" fill="#3F3D56"/>
</g>
<defs>
<clipPath id="clip0_2_556">
<rect width="128" height="107" fill="white"/>
</clipPath>
</defs>
</svg>
